<svg width="109" height="106" viewBox="0 0 109 106" fill="none" xmlns="http://www.w3.org/2000/svg">
<mask id="path-1-outside-1_1_475" maskUnits="userSpaceOnUse" x="-7.9782" y="-26.6146" width="133.782" height="151.717" fill="black">
<rect fill="white" x="-7.9782" y="-26.6146" width="133.782" height="151.717"/>
<path fill-rule="evenodd" clip-rule="evenodd" d="M25.419 65.2176C31.1713 77.3712 41.3259 84.1316 53.445 90.3397C55.4915 91.3875 60.5792 93.7649 65.0137 94.4548C68.1494 94.9435 70.9572 94.5514 72.3194 92.4973C73.5113 90.703 73.1409 88.5531 71.8628 86.3779C69.0881 81.6542 62.0201 76.7596 59.7396 75.4475C49.4653 69.5405 37.8468 65.7776 26.0793 64.3089C25.7356 63.5573 25.4074 62.7829 25.0963 61.9866C24.1628 59.5864 23.2957 56.6328 23.169 53.7553C23.0452 50.9589 23.6195 48.2299 25.5731 46.193C29.6482 41.9418 37.2037 41.2507 45.4533 42.2549C47.2514 42.4723 49.0804 42.7733 50.9177 43.1381C51.4546 44.2597 52.1421 45.4025 52.9536 46.5535C59.249 55.4839 72.8285 64.9608 77.2702 67.2396C79.2477 68.2544 82.8612 70.1706 86.0781 70.5498C88.3784 70.8214 90.4785 70.32 91.7599 68.3394C92.9026 66.5756 92.5032 64.511 91.2059 62.4357C88.404 57.9548 81.3723 53.3849 79.0006 52.0428C73.6093 48.9891 62.5458 44.5195 51.5807 42.2718C50.5583 39.9903 50.2504 37.8379 51.0389 35.9671C52.1345 33.3646 55.181 32.1559 59.0278 31.7221C60.1881 31.5917 61.4204 31.5324 62.6953 31.5362C62.7704 31.6136 62.8449 31.6883 62.92 31.7657C68.9869 37.9323 78.0819 43.3057 82.295 45.3187C84.1956 46.2278 87.7524 47.6353 90.821 47.6998C93.0106 47.7443 94.9513 47.1078 95.9988 45.2778C97.0748 43.3985 96.2534 41.5481 94.6299 39.9556C92.4133 37.7849 88.7133 36.093 87.3347 35.4739C83.4537 33.7274 72.253 30.6817 63.121 30.5601C61.374 28.7194 59.9179 26.8133 58.9804 24.9095C57.9878 22.9014 57.5733 20.8983 58.0403 18.9893C59.1964 14.2815 64.1526 12.627 70.0795 12.5055C71.8844 12.4685 73.7796 12.5765 75.6943 12.7955C76.1294 14.6768 77.1877 16.6298 78.654 18.526C82.1105 22.9928 87.8139 27.1698 92.5387 29.3694C94.1684 30.129 97.0594 31.288 99.5382 31.2818C101.33 31.2783 102.91 30.676 103.771 29.024C104.819 27.0173 104.199 25.0451 102.823 23.2869C100.906 20.843 97.5075 18.8172 95.7231 17.7303C92.2185 15.5981 84.2831 12.9028 76.5156 11.9095C76.4063 11.1277 76.4284 10.3651 76.6052 9.62836C77.2664 6.85437 80.1037 4.55917 86.1261 3.16432C89.0425 2.49031 92.0216 2.12237 95.0097 2.32635C99.3167 2.61849 103.305 3.76475 107.33 5.24547C107.584 5.33778 107.867 5.20849 107.96 4.95376C108.054 4.70001 107.924 4.41634 107.67 4.32403C103.557 2.81091 99.4781 1.64611 95.0775 1.34759C91.9933 1.13795 88.9171 1.51338 85.9073 2.20826C79.3525 3.7265 76.372 6.3833 75.651 9.40167C75.4678 10.1732 75.4311 10.9728 75.5215 11.7912C73.6594 11.5867 71.8198 11.4881 70.0623 11.5253C63.6231 11.6571 58.3437 13.6442 57.0892 18.7575C56.1629 22.5347 58.2929 26.6798 61.7894 30.5644C60.7981 30.586 59.838 30.6438 58.9216 30.7472C54.6568 31.2276 51.3501 32.7031 50.1354 35.586C49.3272 37.5066 49.5214 39.7113 50.4404 42.0464C48.8051 41.7348 47.1764 41.4746 45.5726 41.2809C36.9719 40.235 29.1164 41.0816 24.866 45.515C23.1448 47.3098 22.3764 49.5843 22.2083 52.0014C21.9673 55.5236 23.018 59.3494 24.1845 62.3443C24.4264 62.9669 24.6795 63.5777 24.9431 64.1743C23.6286 64.0275 22.3126 63.907 20.9963 63.8181C17.7408 63.5957 13.819 63.4625 10.2881 64.2691C7.87599 64.8216 5.64601 65.8103 3.91025 67.4855C1.42124 69.8821 0.924829 72.86 1.45492 75.8571C1.96637 78.7572 3.45093 81.6751 4.95842 84.0598C11.5565 94.498 21.92 102.318 34.3908 103.997C34.6571 104.033 34.9039 103.845 34.9414 103.576C34.9779 103.309 34.7912 103.061 34.5222 103.026C22.343 101.385 12.231 93.7291 5.78662 83.5337C4.34221 81.2511 2.91043 78.4612 2.41868 75.6835C1.9463 73.0054 2.36248 70.3348 4.58762 68.1917C6.60581 66.2465 9.35151 65.3198 12.2333 64.9093C15.1841 64.4887 18.2805 64.6146 20.9285 64.7968C22.4265 64.8999 23.9256 65.04 25.419 65.2176ZM76.7266 12.9222C77.1762 14.5669 78.1448 16.2642 79.4289 17.9238C82.7943 22.2744 88.3511 26.3373 92.9529 28.4796C94.4889 29.1941 97.2045 30.3085 99.5368 30.3016C100.952 30.2979 102.225 29.8744 102.905 28.5712C103.76 26.9294 103.177 25.3322 102.05 23.8929C100.208 21.5438 96.9278 19.6138 95.212 18.5687C91.8292 16.5114 84.2284 13.9254 76.7266 12.9222ZM64.104 31.5629C70.0757 37.4364 78.677 42.5021 82.7195 44.4348C84.5297 45.3008 87.9184 46.6588 90.8451 46.7185C92.6515 46.7571 94.2853 46.3039 95.1492 44.7918C95.9933 43.3181 95.217 41.9064 93.9436 40.6588C91.8157 38.5734 88.2537 36.9634 86.9316 36.3679C83.2547 34.7143 72.8844 31.8669 64.104 31.5629ZM52.1327 43.3907C52.5895 44.2439 53.1375 45.1112 53.7536 45.9861C59.9569 54.7863 73.3424 64.1217 77.7177 66.3667C79.6237 67.3447 83.0956 69.2086 86.1957 69.5748C88.1055 69.8023 89.8743 69.452 90.9394 67.8067C91.5491 66.8642 91.5765 65.8145 91.2263 64.7259C90.8484 63.5442 90.0374 62.3256 89.0065 61.1319C85.8119 57.433 80.4946 54.0163 78.5165 52.8969C73.306 49.9452 62.7342 45.6575 52.1327 43.3907ZM26.5792 65.3614C32.2798 76.9547 42.1656 83.4602 53.8924 89.4667C55.8871 90.4869 60.8447 92.8118 65.166 93.4863C66.5622 93.703 67.8889 93.7503 69.0192 93.5074C70.0678 93.2808 70.9412 92.8056 71.5039 91.9562C72.1488 90.9841 72.1948 89.8863 71.8561 88.7386C71.4887 87.4995 70.6848 86.2101 69.6564 84.9453C66.4757 81.0345 61.1512 77.3914 59.2504 76.2986C49.2694 70.561 38.0039 66.868 26.5792 65.3614Z"/>
</mask>
<path fill-rule="evenodd" clip-rule="evenodd" d="M25.419 65.2176C31.1713 77.3712 41.3259 84.1316 53.445 90.3397C55.4915 91.3875 60.5792 93.7649 65.0137 94.4548C68.1494 94.9435 70.9572 94.5514 72.3194 92.4973C73.5113 90.703 73.1409 88.5531 71.8628 86.3779C69.0881 81.6542 62.0201 76.7596 59.7396 75.4475C49.4653 69.5405 37.8468 65.7776 26.0793 64.3089C25.7356 63.5573 25.4074 62.7829 25.0963 61.9866C24.1628 59.5864 23.2957 56.6328 23.169 53.7553C23.0452 50.9589 23.6195 48.2299 25.5731 46.193C29.6482 41.9418 37.2037 41.2507 45.4533 42.2549C47.2514 42.4723 49.0804 42.7733 50.9177 43.1381C51.4546 44.2597 52.1421 45.4025 52.9536 46.5535C59.249 55.4839 72.8285 64.9608 77.2702 67.2396C79.2477 68.2544 82.8612 70.1706 86.0781 70.5498C88.3784 70.8214 90.4785 70.32 91.7599 68.3394C92.9026 66.5756 92.5032 64.511 91.2059 62.4357C88.404 57.9548 81.3723 53.3849 79.0006 52.0428C73.6093 48.9891 62.5458 44.5195 51.5807 42.2718C50.5583 39.9903 50.2504 37.8379 51.0389 35.9671C52.1345 33.3646 55.181 32.1559 59.0278 31.7221C60.1881 31.5917 61.4204 31.5324 62.6953 31.5362C62.7704 31.6136 62.8449 31.6883 62.92 31.7657C68.9869 37.9323 78.0819 43.3057 82.295 45.3187C84.1956 46.2278 87.7524 47.6353 90.821 47.6998C93.0106 47.7443 94.9513 47.1078 95.9988 45.2778C97.0748 43.3985 96.2534 41.5481 94.6299 39.9556C92.4133 37.7849 88.7133 36.093 87.3347 35.4739C83.4537 33.7274 72.253 30.6817 63.121 30.5601C61.374 28.7194 59.9179 26.8133 58.9804 24.9095C57.9878 22.9014 57.5733 20.8983 58.0403 18.9893C59.1964 14.2815 64.1526 12.627 70.0795 12.5055C71.8844 12.4685 73.7796 12.5765 75.6943 12.7955C76.1294 14.6768 77.1877 16.6298 78.654 18.526C82.1105 22.9928 87.8139 27.1698 92.5387 29.3694C94.1684 30.129 97.0594 31.288 99.5382 31.2818C101.33 31.2783 102.91 30.676 103.771 29.024C104.819 27.0173 104.199 25.0451 102.823 23.2869C100.906 20.843 97.5075 18.8172 95.7231 17.7303C92.2185 15.5981 84.2831 12.9028 76.5156 11.9095C76.4063 11.1277 76.4284 10.3651 76.6052 9.62836C77.2664 6.85437 80.1037 4.55917 86.1261 3.16432C89.0425 2.49031 92.0216 2.12237 95.0097 2.32635C99.3167 2.61849 103.305 3.76475 107.33 5.24547C107.584 5.33778 107.867 5.20849 107.96 4.95376C108.054 4.70001 107.924 4.41634 107.67 4.32403C103.557 2.81091 99.4781 1.64611 95.0775 1.34759C91.9933 1.13795 88.9171 1.51338 85.9073 2.20826C79.3525 3.7265 76.372 6.3833 75.651 9.40167C75.4678 10.1732 75.4311 10.9728 75.5215 11.7912C73.6594 11.5867 71.8198 11.4881 70.0623 11.5253C63.6231 11.6571 58.3437 13.6442 57.0892 18.7575C56.1629 22.5347 58.2929 26.6798 61.7894 30.5644C60.7981 30.586 59.838 30.6438 58.9216 30.7472C54.6568 31.2276 51.3501 32.7031 50.1354 35.586C49.3272 37.5066 49.5214 39.7113 50.4404 42.0464C48.8051 41.7348 47.1764 41.4746 45.5726 41.2809C36.9719 40.235 29.1164 41.0816 24.866 45.515C23.1448 47.3098 22.3764 49.5843 22.2083 52.0014C21.9673 55.5236 23.018 59.3494 24.1845 62.3443C24.4264 62.9669 24.6795 63.5777 24.9431 64.1743C23.6286 64.0275 22.3126 63.907 20.9963 63.8181C17.7408 63.5957 13.819 63.4625 10.2881 64.2691C7.87599 64.8216 5.64601 65.8103 3.91025 67.4855C1.42124 69.8821 0.924829 72.86 1.45492 75.8571C1.96637 78.7572 3.45093 81.6751 4.95842 84.0598C11.5565 94.498 21.92 102.318 34.3908 103.997C34.6571 104.033 34.9039 103.845 34.9414 103.576C34.9779 103.309 34.7912 103.061 34.5222 103.026C22.343 101.385 12.231 93.7291 5.78662 83.5337C4.34221 81.2511 2.91043 78.4612 2.41868 75.6835C1.9463 73.0054 2.36248 70.3348 4.58762 68.1917C6.60581 66.2465 9.35151 65.3198 12.2333 64.9093C15.1841 64.4887 18.2805 64.6146 20.9285 64.7968C22.4265 64.8999 23.9256 65.04 25.419 65.2176ZM76.7266 12.9222C77.1762 14.5669 78.1448 16.2642 79.4289 17.9238C82.7943 22.2744 88.3511 26.3373 92.9529 28.4796C94.4889 29.1941 97.2045 30.3085 99.5368 30.3016C100.952 30.2979 102.225 29.8744 102.905 28.5712C103.76 26.9294 103.177 25.3322 102.05 23.8929C100.208 21.5438 96.9278 19.6138 95.212 18.5687C91.8292 16.5114 84.2284 13.9254 76.7266 12.9222ZM64.104 31.5629C70.0757 37.4364 78.677 42.5021 82.7195 44.4348C84.5297 45.3008 87.9184 46.6588 90.8451 46.7185C92.6515 46.7571 94.2853 46.3039 95.1492 44.7918C95.9933 43.3181 95.217 41.9064 93.9436 40.6588C91.8157 38.5734 88.2537 36.9634 86.9316 36.3679C83.2547 34.7143 72.8844 31.8669 64.104 31.5629ZM52.1327 43.3907C52.5895 44.2439 53.1375 45.1112 53.7536 45.9861C59.9569 54.7863 73.3424 64.1217 77.7177 66.3667C79.6237 67.3447 83.0956 69.2086 86.1957 69.5748C88.1055 69.8023 89.8743 69.452 90.9394 67.8067C91.5491 66.8642 91.5765 65.8145 91.2263 64.7259C90.8484 63.5442 90.0374 62.3256 89.0065 61.1319C85.8119 57.433 80.4946 54.0163 78.5165 52.8969C73.306 49.9452 62.7342 45.6575 52.1327 43.3907ZM26.5792 65.3614C32.2798 76.9547 42.1656 83.4602 53.8924 89.4667C55.8871 90.4869 60.8447 92.8118 65.166 93.4863C66.5622 93.703 67.8889 93.7503 69.0192 93.5074C70.0678 93.2808 70.9412 92.8056 71.5039 91.9562C72.1488 90.9841 72.1948 89.8863 71.8561 88.7386C71.4887 87.4995 70.6848 86.2101 69.6564 84.9453C66.4757 81.0345 61.1512 77.3914 59.2504 76.2986C49.2694 70.561 38.0039 66.868 26.5792 65.3614Z" fill="#FF823A"/>
<path fill-rule="evenodd" clip-rule="evenodd" d="M25.419 65.2176C31.1713 77.3712 41.3259 84.1316 53.445 90.3397C55.4915 91.3875 60.5792 93.7649 65.0137 94.4548C68.1494 94.9435 70.9572 94.5514 72.3194 92.4973C73.5113 90.703 73.1409 88.5531 71.8628 86.3779C69.0881 81.6542 62.0201 76.7596 59.7396 75.4475C49.4653 69.5405 37.8468 65.7776 26.0793 64.3089C25.7356 63.5573 25.4074 62.7829 25.0963 61.9866C24.1628 59.5864 23.2957 56.6328 23.169 53.7553C23.0452 50.9589 23.6195 48.2299 25.5731 46.193C29.6482 41.9418 37.2037 41.2507 45.4533 42.2549C47.2514 42.4723 49.0804 42.7733 50.9177 43.1381C51.4546 44.2597 52.1421 45.4025 52.9536 46.5535C59.249 55.4839 72.8285 64.9608 77.2702 67.2396C79.2477 68.2544 82.8612 70.1706 86.0781 70.5498C88.3784 70.8214 90.4785 70.32 91.7599 68.3394C92.9026 66.5756 92.5032 64.511 91.2059 62.4357C88.404 57.9548 81.3723 53.3849 79.0006 52.0428C73.6093 48.9891 62.5458 44.5195 51.5807 42.2718C50.5583 39.9903 50.2504 37.8379 51.0389 35.9671C52.1345 33.3646 55.181 32.1559 59.0278 31.7221C60.1881 31.5917 61.4204 31.5324 62.6953 31.5362C62.7704 31.6136 62.8449 31.6883 62.92 31.7657C68.9869 37.9323 78.0819 43.3057 82.295 45.3187C84.1956 46.2278 87.7524 47.6353 90.821 47.6998C93.0106 47.7443 94.9513 47.1078 95.9988 45.2778C97.0748 43.3985 96.2534 41.5481 94.6299 39.9556C92.4133 37.7849 88.7133 36.093 87.3347 35.4739C83.4537 33.7274 72.253 30.6817 63.121 30.5601C61.374 28.7194 59.9179 26.8133 58.9804 24.9095C57.9878 22.9014 57.5733 20.8983 58.0403 18.9893C59.1964 14.2815 64.1526 12.627 70.0795 12.5055C71.8844 12.4685 73.7796 12.5765 75.6943 12.7955C76.1294 14.6768 77.1877 16.6298 78.654 18.526C82.1105 22.9928 87.8139 27.1698 92.5387 29.3694C94.1684 30.129 97.0594 31.288 99.5382 31.2818C101.33 31.2783 102.91 30.676 103.771 29.024C104.819 27.0173 104.199 25.0451 102.823 23.2869C100.906 20.843 97.5075 18.8172 95.7231 17.7303C92.2185 15.5981 84.2831 12.9028 76.5156 11.9095C76.4063 11.1277 76.4284 10.3651 76.6052 9.62836C77.2664 6.85437 80.1037 4.55917 86.1261 3.16432C89.0425 2.49031 92.0216 2.12237 95.0097 2.32635C99.3167 2.61849 103.305 3.76475 107.33 5.24547C107.584 5.33778 107.867 5.20849 107.96 4.95376C108.054 4.70001 107.924 4.41634 107.67 4.32403C103.557 2.81091 99.4781 1.64611 95.0775 1.34759C91.9933 1.13795 88.9171 1.51338 85.9073 2.20826C79.3525 3.7265 76.372 6.3833 75.651 9.40167C75.4678 10.1732 75.4311 10.9728 75.5215 11.7912C73.6594 11.5867 71.8198 11.4881 70.0623 11.5253C63.6231 11.6571 58.3437 13.6442 57.0892 18.7575C56.1629 22.5347 58.2929 26.6798 61.7894 30.5644C60.7981 30.586 59.838 30.6438 58.9216 30.7472C54.6568 31.2276 51.3501 32.7031 50.1354 35.586C49.3272 37.5066 49.5214 39.7113 50.4404 42.0464C48.8051 41.7348 47.1764 41.4746 45.5726 41.2809C36.9719 40.235 29.1164 41.0816 24.866 45.515C23.1448 47.3098 22.3764 49.5843 22.2083 52.0014C21.9673 55.5236 23.018 59.3494 24.1845 62.3443C24.4264 62.9669 24.6795 63.5777 24.9431 64.1743C23.6286 64.0275 22.3126 63.907 20.9963 63.8181C17.7408 63.5957 13.819 63.4625 10.2881 64.2691C7.87599 64.8216 5.64601 65.8103 3.91025 67.4855C1.42124 69.8821 0.924829 72.86 1.45492 75.8571C1.96637 78.7572 3.45093 81.6751 4.95842 84.0598C11.5565 94.498 21.92 102.318 34.3908 103.997C34.6571 104.033 34.9039 103.845 34.9414 103.576C34.9779 103.309 34.7912 103.061 34.5222 103.026C22.343 101.385 12.231 93.7291 5.78662 83.5337C4.34221 81.2511 2.91043 78.4612 2.41868 75.6835C1.9463 73.0054 2.36248 70.3348 4.58762 68.1917C6.60581 66.2465 9.35151 65.3198 12.2333 64.9093C15.1841 64.4887 18.2805 64.6146 20.9285 64.7968C22.4265 64.8999 23.9256 65.04 25.419 65.2176ZM76.7266 12.9222C77.1762 14.5669 78.1448 16.2642 79.4289 17.9238C82.7943 22.2744 88.3511 26.3373 92.9529 28.4796C94.4889 29.1941 97.2045 30.3085 99.5368 30.3016C100.952 30.2979 102.225 29.8744 102.905 28.5712C103.76 26.9294 103.177 25.3322 102.05 23.8929C100.208 21.5438 96.9278 19.6138 95.212 18.5687C91.8292 16.5114 84.2284 13.9254 76.7266 12.9222ZM64.104 31.5629C70.0757 37.4364 78.677 42.5021 82.7195 44.4348C84.5297 45.3008 87.9184 46.6588 90.8451 46.7185C92.6515 46.7571 94.2853 46.3039 95.1492 44.7918C95.9933 43.3181 95.217 41.9064 93.9436 40.6588C91.8157 38.5734 88.2537 36.9634 86.9316 36.3679C83.2547 34.7143 72.8844 31.8669 64.104 31.5629ZM52.1327 43.3907C52.5895 44.2439 53.1375 45.1112 53.7536 45.9861C59.9569 54.7863 73.3424 64.1217 77.7177 66.3667C79.6237 67.3447 83.0956 69.2086 86.1957 69.5748C88.1055 69.8023 89.8743 69.452 90.9394 67.8067C91.5491 66.8642 91.5765 65.8145 91.2263 64.7259C90.8484 63.5442 90.0374 62.3256 89.0065 61.1319C85.8119 57.433 80.4946 54.0163 78.5165 52.8969C73.306 49.9452 62.7342 45.6575 52.1327 43.3907ZM26.5792 65.3614C32.2798 76.9547 42.1656 83.4602 53.8924 89.4667C55.8871 90.4869 60.8447 92.8118 65.166 93.4863C66.5622 93.703 67.8889 93.7503 69.0192 93.5074C70.0678 93.2808 70.9412 92.8056 71.5039 91.9562C72.1488 90.9841 72.1948 89.8863 71.8561 88.7386C71.4887 87.4995 70.6848 86.2101 69.6564 84.9453C66.4757 81.0345 61.1512 77.3914 59.2504 76.2986C49.2694 70.561 38.0039 66.868 26.5792 65.3614Z" stroke="#FF823A" stroke-width="2" mask="url(#path-1-outside-1_1_475)"/>
</svg>
