<svg width="30" height="34" viewBox="0 0 30 34" fill="none" xmlns="http://www.w3.org/2000/svg">
<path d="M14.9999 33.7999C14.9122 33.7999 14.692 33.7767 14.5439 33.5612L11.8323 29.6151C11.1947 28.6871 10.3093 27.9612 9.27197 27.5159C3.94613 25.2292 0.542478 20.0408 0.600711 14.2978C0.639098 10.5095 2.15185 6.96298 4.86026 4.31146C7.56837 1.66023 11.1698 0.199951 14.9999 0.199951H15C22.9402 0.199951 29.4 6.58992 29.4 14.4442C29.4 20.1269 25.9928 25.2592 20.7199 27.5194C19.6886 27.9615 18.8059 28.6862 18.1676 29.6152L15.456 33.5612C15.3079 33.7767 15.0877 33.7999 14.9999 33.7999Z" fill="url(#paint0_linear_1_631)"/>
<defs>
<linearGradient id="paint0_linear_1_631" x1="11.7499" y1="11.2376" x2="1.23917" y2="0.611917" gradientUnits="userSpaceOnUse">
<stop stop-color="#FF7044" stop-opacity="0"/>
<stop offset="1" stop-color="#FFA425"/>
</linearGradient>
</defs>
</svg>
